<?xml version="1.0" ?><!DOCTYPE svg  PUBLIC '-//W3C//DTD SVG 1.1//EN'  'http://www.w3.org/Graphics/SVG/1.1/DTD/svg11.dtd'><svg enable-background="new 0 0 128 128" id="Слой_1" version="1.1" viewBox="0 0 128 128" xml:space="preserve" xmlns="http://www.w3.org/2000/svg" xmlns:xlink="http://www.w3.org/1999/xlink"><polyline fill="#CCE9E2" points="39,16 39,4 89,4 89,16 "/><rect height="12" opacity="0.1" width="10" x="39" y="4"/><polygon fill="#CCE9E2" points="74,124 104,124 104,31 89,16 39,16 24.3,30.7 24.3,124 "/><polygon opacity="0.1" points="49,16 39,16 24.3,30.7 24.3,124 34.3,124 34.3,30.7 "/><polygon fill="#85BEC1" points="74,124 104,124 104,31 89,16 74,31 "/><path d="M24,126.5h50h30c1.4,0,2.5-1.1,2.5-2.5V31c0-0.7-0.3-1.3-0.7-1.8L91.5,15V4c0-1.4-1.1-2.5-2.5-2.5H39  c-1.4,0-2.5,1.1-2.5,2.5v11L22.2,29.2c-0.1,0.1-0.2,0.2-0.3,0.4c0,0.1-0.1,0.1-0.1,0.2c0,0.1-0.1,0.2-0.1,0.3c0,0.1-0.1,0.2-0.1,0.2  c0,0.1-0.1,0.1-0.1,0.2c0,0.2,0,0.3,0,0.5v93C21.5,125.4,22.6,126.5,24,126.5z M40,18.5H83l-10,10H30L40,18.5z M26.5,33.5h45v88h-45  V33.5z M101.5,121.5h-25V32L89,19.5L101.5,32V121.5z M86.5,6.5v7h-45v-7H86.5z" fill="#62355C"/><path d="M49,26.5h10c1.4,0,2.5-1.1,2.5-2.5s-1.1-2.5-2.5-2.5H49c-1.4,0-2.5,1.1-2.5,2.5S47.6,26.5,49,26.5z" fill="#62355C"/><path d="M64,48.5H34c-1.4,0-2.5,1.1-2.5,2.5s1.1,2.5,2.5,2.5h30c1.4,0,2.5-1.1,2.5-2.5S65.4,48.5,64,48.5z" fill="#62355C"/><path d="M64,68.5H34c-1.4,0-2.5,1.1-2.5,2.5s1.1,2.5,2.5,2.5h30c1.4,0,2.5-1.1,2.5-2.5S65.4,68.5,64,68.5z" fill="#62355C"/></svg>